<svg width="230" height="52" viewBox="0 0 230 52" fill="none" xmlns="http://www.w3.org/2000/svg">
<path d="M0.68 21.2C0.68 17.904 1.416 14.96 2.888 12.368C4.392 9.744 6.424 7.712 8.984 6.272C11.576 4.8 14.472 4.064 17.672 4.064C21.416 4.064 24.696 5.024 27.512 6.944C30.328 8.864 32.296 11.52 33.416 14.912H25.688C24.92 13.312 23.832 12.112 22.424 11.312C21.048 10.512 19.448 10.112 17.624 10.112C15.672 10.112 13.928 10.576 12.392 11.504C10.888 12.4 9.704 13.68 8.84 15.344C8.008 17.008 7.592 18.96 7.592 21.2C7.592 23.408 8.008 25.36 8.84 27.056C9.704 28.72 10.888 30.016 12.392 30.944C13.928 31.84 15.672 32.288 17.624 32.288C19.448 32.288 21.048 31.888 22.424 31.088C23.832 30.256 24.92 29.04 25.688 27.44H33.416C32.296 30.864 30.328 33.536 27.512 35.456C24.728 37.344 21.448 38.288 17.672 38.288C14.472 38.288 11.576 37.568 8.984 36.128C6.424 34.656 4.392 32.624 2.888 30.032C1.416 27.44 0.68 24.496 0.68 21.2ZM45.8758 15.536C46.7398 14.128 47.8598 13.024 49.2358 12.224C50.6438 11.424 52.2438 11.024 54.0358 11.024V18.08H52.2598C50.1478 18.08 48.5478 18.576 47.4598 19.568C46.4038 20.56 45.8758 22.288 45.8758 24.752V38H39.1558V11.408H45.8758V15.536ZM56.834 24.608C56.834 21.92 57.362 19.536 58.418 17.456C59.506 15.376 60.962 13.776 62.786 12.656C64.642 11.536 66.706 10.976 68.978 10.976C70.962 10.976 72.69 11.376 74.162 12.176C75.666 12.976 76.866 13.984 77.762 15.2V11.408H84.53V38H77.762V34.112C76.898 35.36 75.698 36.4 74.162 37.232C72.658 38.032 70.914 38.432 68.93 38.432C66.69 38.432 64.642 37.856 62.786 36.704C60.962 35.552 59.506 33.936 58.418 31.856C57.362 29.744 56.834 27.328 56.834 24.608ZM77.762 24.704C77.762 23.072 77.442 21.68 76.802 20.528C76.162 19.344 75.298 18.448 74.21 17.84C73.122 17.2 71.954 16.88 70.706 16.88C69.458 16.88 68.306 17.184 67.25 17.792C66.194 18.4 65.33 19.296 64.658 20.48C64.018 21.632 63.698 23.008 63.698 24.608C63.698 26.208 64.018 27.616 64.658 28.832C65.33 30.016 66.194 30.928 67.25 31.568C68.338 32.208 69.49 32.528 70.706 32.528C71.954 32.528 73.122 32.224 74.21 31.616C75.298 30.976 76.162 30.08 76.802 28.928C77.442 27.744 77.762 26.336 77.762 24.704ZM94.5013 8.24C93.3173 8.24 92.3253 7.872 91.5253 7.136C90.7573 6.368 90.3733 5.424 90.3733 4.304C90.3733 3.184 90.7573 2.256 91.5253 1.52C92.3253 0.751998 93.3173 0.367998 94.5013 0.367998C95.6853 0.367998 96.6613 0.751998 97.4293 1.52C98.2293 2.256 98.6293 3.184 98.6293 4.304C98.6293 5.424 98.2293 6.368 97.4293 7.136C96.6613 7.872 95.6853 8.24 94.5013 8.24ZM97.8133 11.408V38H91.0933V11.408H97.8133ZM114.869 10.976C116.853 10.976 118.597 11.376 120.101 12.176C121.605 12.944 122.789 13.952 123.653 15.2V11.408H130.421V38.192C130.421 40.656 129.925 42.848 128.933 44.768C127.941 46.72 126.453 48.256 124.469 49.376C122.485 50.528 120.085 51.104 117.269 51.104C113.493 51.104 110.389 50.224 107.957 48.464C105.557 46.704 104.197 44.304 103.877 41.264H110.549C110.901 42.48 111.653 43.44 112.805 44.144C113.989 44.88 115.413 45.248 117.077 45.248C119.029 45.248 120.613 44.656 121.829 43.472C123.045 42.32 123.653 40.56 123.653 38.192V34.064C122.789 35.312 121.589 36.352 120.053 37.184C118.549 38.016 116.821 38.432 114.869 38.432C112.629 38.432 110.581 37.856 108.725 36.704C106.869 35.552 105.397 33.936 104.309 31.856C103.253 29.744 102.725 27.328 102.725 24.608C102.725 21.92 103.253 19.536 104.309 17.456C105.397 15.376 106.853 13.776 108.677 12.656C110.533 11.536 112.597 10.976 114.869 10.976ZM123.653 24.704C123.653 23.072 123.333 21.68 122.693 20.528C122.053 19.344 121.189 18.448 120.101 17.84C119.013 17.2 117.845 16.88 116.597 16.88C115.349 16.88 114.197 17.184 113.141 17.792C112.085 18.4 111.221 19.296 110.549 20.48C109.909 21.632 109.589 23.008 109.589 24.608C109.589 26.208 109.909 27.616 110.549 28.832C111.221 30.016 112.085 30.928 113.141 31.568C114.229 32.208 115.381 32.528 116.597 32.528C117.845 32.528 119.013 32.224 120.101 31.616C121.189 30.976 122.053 30.08 122.693 28.928C123.333 27.744 123.653 26.336 123.653 24.704ZM147.16 38.432C144.984 38.432 143.032 38.048 141.304 37.28C139.576 36.48 138.2 35.408 137.176 34.064C136.184 32.72 135.64 31.232 135.544 29.6H142.312C142.44 30.624 142.936 31.472 143.8 32.144C144.696 32.816 145.8 33.152 147.112 33.152C148.392 33.152 149.384 32.896 150.088 32.384C150.824 31.872 151.192 31.216 151.192 30.416C151.192 29.552 150.744 28.912 149.848 28.496C148.984 28.048 147.592 27.568 145.672 27.056C143.688 26.576 142.056 26.08 140.776 25.568C139.528 25.056 138.44 24.272 137.512 23.216C136.616 22.16 136.168 20.736 136.168 18.944C136.168 17.472 136.584 16.128 137.416 14.912C138.28 13.696 139.496 12.736 141.064 12.032C142.664 11.328 144.536 10.976 146.68 10.976C149.848 10.976 152.376 11.776 154.264 13.376C156.152 14.944 157.192 17.072 157.384 19.76H150.952C150.856 18.704 150.408 17.872 149.608 17.264C148.84 16.624 147.8 16.304 146.488 16.304C145.272 16.304 144.328 16.528 143.656 16.976C143.016 17.424 142.696 18.048 142.696 18.848C142.696 19.744 143.144 20.432 144.04 20.912C144.936 21.36 146.328 21.824 148.216 22.304C150.136 22.784 151.72 23.28 152.968 23.792C154.216 24.304 155.288 25.104 156.184 26.192C157.112 27.248 157.592 28.656 157.624 30.416C157.624 31.952 157.192 33.328 156.328 34.544C155.496 35.76 154.28 36.72 152.68 37.424C151.112 38.096 149.272 38.432 147.16 38.432ZM169.86 2.48V38H163.14V2.48H169.86ZM179.908 8.24C178.724 8.24 177.732 7.872 176.932 7.136C176.164 6.368 175.78 5.424 175.78 4.304C175.78 3.184 176.164 2.256 176.932 1.52C177.732 0.751998 178.724 0.367998 179.908 0.367998C181.092 0.367998 182.068 0.751998 182.836 1.52C183.636 2.256 184.036 3.184 184.036 4.304C184.036 5.424 183.636 6.368 182.836 7.136C182.068 7.872 181.092 8.24 179.908 8.24ZM183.22 11.408V38H176.5V11.408H183.22ZM200.035 38.432C197.859 38.432 195.907 38.048 194.179 37.28C192.451 36.48 191.075 35.408 190.051 34.064C189.059 32.72 188.515 31.232 188.419 29.6H195.187C195.315 30.624 195.811 31.472 196.675 32.144C197.571 32.816 198.675 33.152 199.987 33.152C201.267 33.152 202.259 32.896 202.963 32.384C203.699 31.872 204.067 31.216 204.067 30.416C204.067 29.552 203.619 28.912 202.723 28.496C201.859 28.048 200.467 27.568 198.547 27.056C196.563 26.576 194.931 26.08 193.651 25.568C192.403 25.056 191.315 24.272 190.387 23.216C189.491 22.16 189.043 20.736 189.043 18.944C189.043 17.472 189.459 16.128 190.291 14.912C191.155 13.696 192.371 12.736 193.939 12.032C195.539 11.328 197.411 10.976 199.555 10.976C202.723 10.976 205.251 11.776 207.139 13.376C209.027 14.944 210.067 17.072 210.259 19.76H203.827C203.731 18.704 203.283 17.872 202.483 17.264C201.715 16.624 200.675 16.304 199.363 16.304C198.147 16.304 197.203 16.528 196.531 16.976C195.891 17.424 195.571 18.048 195.571 18.848C195.571 19.744 196.019 20.432 196.915 20.912C197.811 21.36 199.203 21.824 201.091 22.304C203.011 22.784 204.595 23.28 205.843 23.792C207.091 24.304 208.163 25.104 209.059 26.192C209.987 27.248 210.467 28.656 210.499 30.416C210.499 31.952 210.067 33.328 209.203 34.544C208.371 35.76 207.155 36.72 205.555 37.424C203.987 38.096 202.147 38.432 200.035 38.432ZM223.839 16.928V29.792C223.839 30.688 224.047 31.344 224.463 31.76C224.911 32.144 225.647 32.336 226.671 32.336H229.791V38H225.567C219.903 38 217.071 35.248 217.071 29.744V16.928H213.903V11.408H217.071V4.832H223.839V11.408H229.791V16.928H223.839Z" fill="black"/>
</svg>
